<?xml version="1.0" standalone="no"?>
<!DOCTYPE svg PUBLIC "-//W3C//DTD SVG 20010904//EN"
 "http://www.w3.org/TR/2001/REC-SVG-20010904/DTD/svg10.dtd">
<svg version="1.0" xmlns="http://www.w3.org/2000/svg"
 width="148.000000pt" height="148.000000pt" viewBox="0 0 148.000000 148.000000"
 preserveAspectRatio="xMidYMid meet">
<metadata>
Created by potrace 1.14, written by Peter Selinger 2001-2017
</metadata>
<g transform="translate(0.000000,148.000000) scale(0.100000,-0.100000)"
fill="#000000" stroke="none">
<path d="M0 740 l0 -740 740 0 740 0 0 740 0 740 -740 0 -740 0 0 -740z m468
35 c-2 -80 -1 -145 2 -145 3 0 34 41 69 90 36 50 68 90 72 90 11 0 199 -258
199 -273 0 -18 -21 -37 -41 -37 -11 0 -45 37 -86 95 -37 52 -71 93 -76 92 -4
-1 -36 -43 -70 -92 -61 -87 -64 -90 -105 -93 l-42 -3 0 210 0 211 41 0 40 0
-3 -145z m333 50 l72 -95 21 29 c11 15 41 58 66 95 44 64 46 66 87 66 l43 0 0
-211 0 -210 -37 3 -38 3 -5 145 -5 145 -65 -92 c-36 -51 -68 -91 -72 -90 -4 1
-51 63 -106 137 -84 113 -98 137 -88 152 24 39 53 22 127 -77z"/>
</g>
</svg>
